<svg width="1200" height="760" viewBox="0 0 1200 760" fill="none" xmlns="http://www.w3.org/2000/svg">
  <defs>
    <linearGradient id="bg" x1="80" y1="40" x2="1120" y2="720" gradientUnits="userSpaceOnUse">
      <stop stop-color="#0F172A"/>
      <stop offset="1" stop-color="#111827"/>
    </linearGradient>
    <linearGradient id="card" x1="0" y1="0" x2="1" y2="1">
      <stop stop-color="#172554"/>
      <stop offset="1" stop-color="#1E293B"/>
    </linearGradient>
    <linearGradient id="queue" x1="0" y1="0" x2="1" y2="1">
      <stop stop-color="#082F49"/>
      <stop offset="1" stop-color="#0F172A"/>
    </linearGradient>
    <filter id="shadow" x="-20%" y="-20%" width="140%" height="140%">
      <feDropShadow dx="0" dy="18" stdDeviation="22" flood-color="#020617" flood-opacity="0.45"/>
    </filter>
  </defs>

  <rect width="1200" height="760" rx="32" fill="url(#bg)"/>
  <circle cx="1060" cy="120" r="160" fill="#1D4ED8" opacity="0.14"/>
  <circle cx="180" cy="620" r="180" fill="#22D3EE" opacity="0.08"/>

  <text x="80" y="102" fill="#E2E8F0" font-family="Segoe UI, Arial, sans-serif" font-size="40" font-weight="700">Desktop Floating Collector</text>
  <text x="80" y="142" fill="#94A3B8" font-family="Segoe UI, Arial, sans-serif" font-size="20">Drag files, paste links, monitor queue progress, and keep the window out of the way.</text>

  <rect x="80" y="200" width="560" height="420" rx="28" fill="#0B1120" stroke="#1E3A8A" stroke-width="2" filter="url(#shadow)"/>
  <rect x="110" y="230" width="200" height="200" rx="24" fill="url(#card)" stroke="#60A5FA" stroke-width="2"/>
  <circle cx="272" cy="260" r="9" fill="#F43F5E"/>
  <rect x="132" y="284" width="156" height="156" rx="22" fill="#0F172A" stroke="#1D4ED8" stroke-width="2"/>
  <circle cx="210" cy="362" r="47" stroke="#60A5FA" stroke-width="10" opacity="0.2"/>
  <path d="M210 315 A47 47 0 1 1 176 392" stroke="#60A5FA" stroke-width="10" stroke-linecap="round"/>
  <text x="187" y="370" fill="#E2E8F0" font-family="Segoe UI, Arial, sans-serif" font-size="20" font-weight="700">68%</text>
  <text x="164" y="404" fill="#93C5FD" font-family="Segoe UI, Arial, sans-serif" font-size="14">Downloading</text>
  <rect x="132" y="456" width="34" height="10" rx="5" fill="#38BDF8"/>
  <rect x="176" y="456" width="18" height="10" rx="5" fill="#334155"/>
  <rect x="256" y="456" width="18" height="10" rx="5" fill="#334155"/>

  <rect x="334" y="230" width="276" height="160" rx="22" fill="#0F172A" stroke="#1E40AF" stroke-width="2"/>
  <text x="362" y="274" fill="#E2E8F0" font-family="Segoe UI, Arial, sans-serif" font-size="22" font-weight="700">Quick capture</text>
  <rect x="362" y="298" width="220" height="40" rx="12" fill="#172554"/>
  <text x="386" y="324" fill="#BFDBFE" font-family="Segoe UI, Arial, sans-serif" font-size="16">Drop files here</text>
  <rect x="362" y="350" width="160" height="20" rx="10" fill="#0EA5E9" opacity="0.28"/>
  <rect x="362" y="380" width="188" height="20" rx="10" fill="#334155"/>

  <rect x="334" y="414" width="276" height="176" rx="22" fill="#0F172A" stroke="#1E40AF" stroke-width="2"/>
  <text x="362" y="456" fill="#E2E8F0" font-family="Segoe UI, Arial, sans-serif" font-size="22" font-weight="700">Current actions</text>
  <text x="362" y="490" fill="#94A3B8" font-family="Segoe UI, Arial, sans-serif" font-size="16">Paste video URL</text>
  <text x="362" y="522" fill="#94A3B8" font-family="Segoe UI, Arial, sans-serif" font-size="16">Drag folder to set output path</text>
  <text x="362" y="554" fill="#94A3B8" font-family="Segoe UI, Arial, sans-serif" font-size="16">Open context menu for folder actions</text>

  <rect x="682" y="246" width="438" height="304" rx="26" fill="url(#queue)" stroke="#0EA5E9" stroke-width="2" filter="url(#shadow)"/>
  <text x="716" y="292" fill="#E2E8F0" font-family="Segoe UI, Arial, sans-serif" font-size="26" font-weight="700">Video queue</text>
  <text x="954" y="292" fill="#7DD3FC" font-family="Segoe UI, Arial, sans-serif" font-size="18">1 active · 2 queued</text>

  <rect x="716" y="322" width="370" height="62" rx="16" fill="#0F172A" stroke="#1D4ED8"/>
  <circle cx="744" cy="353" r="7" fill="#38BDF8"/>
  <text x="764" y="349" fill="#E2E8F0" font-family="Segoe UI, Arial, sans-serif" font-size="18" font-weight="600">youtube_clip_01.mp4</text>
  <rect x="764" y="360" width="250" height="10" rx="5" fill="#1E293B"/>
  <rect x="764" y="360" width="178" height="10" rx="5" fill="#38BDF8"/>
  <text x="1034" y="370" fill="#BAE6FD" font-family="Segoe UI, Arial, sans-serif" font-size="14">68%</text>

  <rect x="716" y="398" width="370" height="56" rx="16" fill="#0F172A" stroke="#1E3A8A"/>
  <circle cx="744" cy="426" r="7" fill="#93C5FD" opacity="0.6"/>
  <text x="764" y="430" fill="#CBD5E1" font-family="Segoe UI, Arial, sans-serif" font-size="18">douyin_reference.mov</text>
  <text x="982" y="430" fill="#93C5FD" font-family="Segoe UI, Arial, sans-serif" font-size="14">Queued next</text>

  <rect x="716" y="468" width="370" height="56" rx="16" fill="#0F172A" stroke="#1E3A8A"/>
  <circle cx="744" cy="496" r="7" fill="#93C5FD" opacity="0.6"/>
  <text x="764" y="500" fill="#CBD5E1" font-family="Segoe UI, Arial, sans-serif" font-size="18">xiaohongshu_board.mp4</text>
  <text x="990" y="500" fill="#93C5FD" font-family="Segoe UI, Arial, sans-serif" font-size="14">Pending</text>

  <rect x="680" y="586" width="440" height="82" rx="22" fill="#0F172A" stroke="#1D4ED8"/>
  <text x="716" y="622" fill="#E2E8F0" font-family="Segoe UI, Arial, sans-serif" font-size="22" font-weight="700">Output folder</text>
  <text x="716" y="650" fill="#94A3B8" font-family="Segoe UI, Arial, sans-serif" font-size="16">Desktop/FlowSelect_Received</text>
  <rect x="992" y="612" width="96" height="30" rx="15" fill="#1D4ED8"/>
  <text x="1018" y="632" fill="#EFF6FF" font-family="Segoe UI, Arial, sans-serif" font-size="15" font-weight="700">Open</text>
</svg>
