<svg width="1024" height="1024" viewBox="0 0 1024 1024" fill="none" xmlns="http://www.w3.org/2000/svg">
<path fill-rule="evenodd" clip-rule="evenodd" d="M501.333 273.323C438.187 273.323 431.872 280.022 399.189 280.022C371.968 280.022 290.219 213.333 249.387 213.333C208.555 213.333 160.853 237.355 160.853 306.688V386.688C160.939 407.68 168.533 472.021 198.4 454.827C163.115 496.555 159.573 545.238 160.043 592.342C150.528 595.072 140.843 598.187 131.413 601.387C102.229 611.371 71.2532 624.085 57.3012 633.131C50.1722 637.736 45.1647 644.985 43.3804 653.283C41.596 661.581 43.181 670.247 47.7866 677.376C52.3921 684.505 59.6411 689.513 67.9387 691.297C76.2363 693.081 84.9029 691.496 92.0319 686.891C98.6879 682.582 122.795 671.958 152.107 661.931L161.835 658.731C163.797 677.206 168.704 694.144 176 709.504L174.976 710.059C157.483 719.275 141.269 729.899 130.944 736.64L126.123 739.798C118.994 744.403 113.986 751.652 112.202 759.95C110.417 768.247 112.002 776.914 116.608 784.043C121.213 791.172 128.462 796.179 136.76 797.964C145.058 799.748 153.724 798.163 160.853 793.558L166.443 789.888C176.896 783.062 190.293 774.315 204.885 766.635C208.299 764.814 211.584 763.165 214.741 761.685C288.555 830.933 421.12 853.334 501.333 853.334C581.547 853.334 714.112 830.933 787.925 761.685C791.054 763.165 794.339 764.814 797.781 766.635C812.373 774.315 825.771 783.062 836.224 789.888L841.813 793.558C848.942 798.163 857.609 799.748 865.907 797.964C874.204 796.179 881.453 791.172 886.059 784.043C890.664 776.914 892.249 768.247 890.465 759.95C888.68 751.652 883.673 744.403 876.544 739.798L871.723 736.64C857.464 727.104 842.771 718.234 827.691 710.059L826.667 709.504C833.963 694.144 838.869 677.206 840.832 658.731L850.56 661.931C879.872 671.958 903.979 682.582 910.677 686.891C917.803 691.238 926.345 692.629 934.482 690.767C942.619 688.905 949.706 683.937 954.232 676.923C958.757 669.909 960.363 661.404 958.707 653.223C957.05 645.042 952.263 637.832 945.365 633.131C931.413 624.085 900.437 611.371 871.296 601.387C861.806 598.147 852.247 595.117 842.624 592.299C843.136 545.195 839.552 496.555 804.224 454.827C834.091 472.021 841.771 407.68 841.813 386.646V306.688C841.813 237.355 794.155 213.333 753.28 213.333C712.448 213.333 630.699 280.022 603.52 280.022C570.795 280.022 564.48 273.323 501.333 273.323ZM472.533 665.6C481.152 662.656 491.349 661.334 501.333 661.334C511.317 661.334 521.515 662.656 530.176 665.6C534.443 667.051 539.563 669.355 544.171 673.024C547.327 675.409 549.909 678.472 551.726 681.986C553.542 685.501 554.547 689.379 554.667 693.334C554.667 703.147 548.736 709.974 544.171 713.643C539.605 717.312 534.4 719.616 530.176 721.067C521.515 724.011 511.317 725.334 501.333 725.334C491.349 725.334 481.152 724.011 472.533 721.067C467.466 719.407 462.719 716.897 458.496 713.643C455.339 711.258 452.757 708.195 450.941 704.681C449.124 701.166 448.119 697.288 448 693.334C448 683.52 453.931 676.694 458.496 673.024C463.061 669.355 468.309 667.051 472.533 665.6ZM593.92 533.334C599.765 523.606 611.243 512 628.48 512C645.717 512 657.237 523.606 663.04 533.334C669.099 543.531 672 555.819 672 568.021C672 580.224 669.099 592.469 663.04 602.624C657.237 612.395 645.717 624 628.48 624C611.243 624 599.765 612.395 593.92 602.667C587.906 592.121 584.813 580.161 584.96 568.021C584.96 555.819 587.861 543.531 593.92 533.376M339.627 533.376C345.472 523.648 356.949 512.043 374.187 512.043C391.424 512.043 402.944 523.648 408.747 533.376C414.805 543.574 417.707 555.862 417.707 568.064C417.707 580.267 414.805 592.512 408.747 602.667C402.944 612.438 391.424 624.043 374.187 624.043C356.949 624.043 345.472 612.438 339.627 602.71C333.612 592.163 330.519 580.204 330.667 568.064C330.667 555.862 333.568 543.531 339.627 533.376Z" fill="#201E25"/>
</svg>
